HIERARCHY
ROOT Pelvis
{
	OFFSET 0.000000 0.000000 0.000000
	CHANNELS 6 Xposition Yposition Zposition Xrotation Yrotation Zrotation
	JOINT LeftUpLeg_virtual
	{
		OFFSET 0.000000 0.000000 0.000000
		CHANNELS 3 Xrotation Yrotation Zrotation
		JOINT LeftUpLeg
		{
			OFFSET 18.735201 -5.666702 -4.541200
			CHANNELS 3 Xrotation Yrotation Zrotation
			JOINT LeftLeg
			{
				OFFSET -0.021200 -31.938179 0.493100
				CHANNELS 3 Xrotation Yrotation Zrotation
				JOINT LeftFoot
				{
					OFFSET 0.021200 -31.938179 -4.336299
					CHANNELS 3 Xrotation Yrotation Zrotation
					JOINT LeftToeBase
					{
						OFFSET 0.943001 -26.722000 15.023500
						CHANNELS 3 Xrotation Yrotation Zrotation
						End Site
						{
							OFFSET 0 0 0
						}
					}
				}
			}
		}
	}
	JOINT RightUpLeg_virtual
	{
		OFFSET 0.000000 0.000000 0.000000
		CHANNELS 3 Xrotation Yrotation Zrotation
		JOINT RightUpLeg
		{
			OFFSET -18.735201 -5.666702 -4.541200
			CHANNELS 3 Xrotation Yrotation Zrotation
			JOINT RightLeg
			{
				OFFSET 0.018946 -31.938133 0.493100
				CHANNELS 3 Xrotation Yrotation Zrotation
				JOINT RightFoot
				{
					OFFSET -0.018946 -31.938126 -4.336299
					CHANNELS 3 Xrotation Yrotation Zrotation
					JOINT RightToeBase
					{
						OFFSET -0.943001 -26.722004 15.023500
						CHANNELS 3 Xrotation Yrotation Zrotation
						End Site
						{
							OFFSET 0 0 0
						}
					}
				}
			}
		}
	}
	JOINT Hips_virtual
	{
		OFFSET 0.000000 0.000000 0.000000
		CHANNELS 3 Xrotation Yrotation Zrotation
		JOINT Hips
		{
			OFFSET -0.000000 -0.000000 -0.000000
			CHANNELS 3 Xrotation Yrotation Zrotation
			JOINT Spine
			{
				OFFSET 0.000000 10.199997 -0.299500
				CHANNELS 3 Xrotation Yrotation Zrotation
				JOINT Spine1
				{
					OFFSET 0.000000 11.900002 -1.516600
					CHANNELS 3 Xrotation Yrotation Zrotation
					JOINT Spine2
					{
						OFFSET 0.000000 13.600006 -2.842500
						CHANNELS 3 Xrotation Yrotation Zrotation
						JOINT Neck_virtual
						{
							OFFSET 0.000000 0.000000 0.000000
							CHANNELS 3 Xrotation Yrotation Zrotation
							JOINT Neck
							{
								OFFSET 0.000000 9.624100 -2.890100
								CHANNELS 3 Xrotation Yrotation Zrotation
								JOINT Head
								{
									OFFSET 0.000000 14.068802 -1.351900
									CHANNELS 3 Xrotation Yrotation Zrotation
									End Site
									{
										OFFSET 0 0 0
									}
								}
							}
						}
						JOINT LeftShoulder_virtual
						{
							OFFSET 0.000000 0.000000 0.000000
							CHANNELS 3 Xrotation Yrotation Zrotation
							JOINT LeftShoulder
							{
								OFFSET 15.263000 10.923401 -0.547700
								CHANNELS 3 Xrotation Yrotation Zrotation
								JOINT LeftArm
								{
									OFFSET 25.438599 -2.830597 -13.032500
									CHANNELS 3 Xrotation Yrotation Zrotation
									JOINT LeftForeArm
									{
										OFFSET 29.960503 0.000000 0.000000
										CHANNELS 3 Xrotation Yrotation Zrotation
										JOINT LeftHand
										{
											OFFSET 27.849251 0.000000 0.000000
											CHANNELS 3 Xrotation Yrotation Zrotation
											End Site
											{
												OFFSET 0 0 0
											}
										}
									}
								}
							}
						}
						JOINT RightShoulder_virtual
						{
							OFFSET 0.000000 0.000000 0.000000
							CHANNELS 3 Xrotation Yrotation Zrotation
							JOINT RightShoulder
							{
								OFFSET -15.263000 10.923401 -0.547700
								CHANNELS 3 Xrotation Yrotation Zrotation
								JOINT RightArm
								{
									OFFSET -25.438599 -2.830597 -13.032500
									CHANNELS 3 Xrotation Yrotation Zrotation
									JOINT RightForeArm
									{
										OFFSET -29.960503 0.000000 0.000000
										CHANNELS 3 Xrotation Yrotation Zrotation
										JOINT RightHand
										{
											OFFSET -27.849251 0.000000 0.000000
											CHANNELS 3 Xrotation Yrotation Zrotation
											End Site
											{
												OFFSET 0 0 0
											}
										}
									}
								}
							}
						}
					}
				}
			}
		}
	}
}
MOTION
Frames: 11
Frame Time: 0.03333333
-1.294123 93.564560 2.019789 0.000000 0.000000 0.000000 1.164688 6.200596 5.333359 -8.870896 5.925313 1.984249 14.785181 4.644123 0.194349 -4.551238 0.679403 -6.260279 0.000000 0.000000 0.000000 1.164688 6.200596 5.333359 -14.641767 -10.577362 -14.507586 32.083400 -0.165748 -2.185950 -17.990116 -9.142215 8.656758 0.000000 0.000000 0.000000 1.164688 6.200596 5.333359 0.000000 0.000000 0.000001 8.197496 -0.954470 6.989972 1.977286 -0.412824 1.344539 0.000000 0.000000 0.000000 1.971132 -0.404076 1.350294 0.602786 0.233286 1.478326 0.000000 0.000000 0.000000 1.971132 -0.404076 1.350294 0.635352 -5.283652 -12.880635 5.726506 -4.951273 -42.398628 -0.000035 -65.564393 -0.000068 0.000000 0.000000 0.000000 1.971132 -0.404076 1.350294 1.688119 19.320710 11.981020 -17.246738 18.683079 60.973140 179.998120 84.868358 -179.998106 0.000000 0.000000 0.000000 
-1.270146 93.560860 2.073660 0.000000 0.000000 0.000000 1.135189 6.132099 5.341687 -8.753967 5.957314 1.953497 14.802085 4.671053 0.181951 -4.680598 0.681396 -6.192638 0.000000 0.000000 0.000000 1.135189 6.132099 5.341687 -14.505782 -10.286292 -14.439213 32.071392 -0.388188 -2.182428 -18.001331 -9.176725 8.746613 0.000000 0.000000 0.000000 1.135189 6.132099 5.341687 0.000000 0.000000 0.000000 8.164880 -1.105045 6.994757 1.971237 -0.454235 1.335347 0.000000 0.000000 0.000000 1.964732 -0.445020 1.341882 0.615783 0.248699 1.451416 0.000000 0.000000 0.000000 1.964732 -0.445020 1.341882 0.638341 -5.316638 -12.830690 5.804758 -5.004714 -42.414932 -0.000023 -65.564297 -0.000060 0.000000 0.000000 0.000000 1.964732 -0.445020 1.341882 1.742139 19.638223 11.894621 -14.648418 20.367928 60.669189 -179.999390 83.210105 179.999431 0.000000 0.000000 0.000000 
-1.246494 93.555840 2.123610 0.000000 0.000000 0.000000 1.101679 6.056613 5.333705 -8.648177 5.983128 1.963464 14.832222 4.701709 0.166524 -4.793752 0.686209 -6.199716 0.000000 0.000000 0.000000 1.101679 6.056613 5.333705 -14.361736 -9.994526 -14.352285 32.046650 -0.611170 -2.178832 -18.001057 -9.208554 8.832753 0.000000 0.000000 0.000000 1.101679 6.056613 5.333705 0.000000 0.000000 0.000000 8.131782 -1.284188 6.996480 1.966687 -0.503289 1.325314 0.000000 0.000000 0.000000 1.959778 -0.493537 1.332816 0.625433 0.264696 1.422336 0.000000 0.000000 0.000000 1.959778 -0.493537 1.332816 0.638524 -5.362368 -12.762701 5.906810 -5.087484 -42.408819 -0.000005 -65.558594 -0.000005 0.000000 0.000000 0.000000 1.959778 -0.493537 1.332816 1.812173 19.996171 11.753378 -12.150130 22.247784 60.206055 179.999144 81.797423 -179.999158 0.000000 0.000000 0.000000 
-1.216944 93.551666 2.171350 0.000000 0.000000 0.000000 1.075330 5.999683 5.315697 -8.563917 6.010461 1.979140 14.873299 4.709357 0.149505 -4.913934 0.690767 -6.194264 0.000000 0.000000 0.000000 1.075330 5.999683 5.315697 -14.204685 -9.702067 -14.254548 31.994764 -0.859635 -2.174529 -17.987643 -9.240232 8.928994 0.000000 0.000000 0.000000 1.075330 5.999683 5.315697 0.000000 0.000000 0.000000 8.102970 -1.486612 6.990870 1.963645 -0.558699 1.313112 0.000000 0.000000 0.000000 1.956316 -0.548352 1.321721 0.632258 0.280922 1.392192 0.000000 0.000000 0.000000 1.956316 -0.548352 1.321721 0.637410 -5.414063 -12.664161 6.031516 -5.194022 -42.395251 -0.000004 -65.552071 0.000005 0.000000 0.000000 0.000000 1.956316 -0.548352 1.321721 1.891716 20.393152 11.594518 -9.757494 24.346237 59.504089 -179.999185 80.682989 179.999185 0.000000 0.000000 0.000000 
-1.177921 93.551224 2.212967 0.000000 0.000000 0.000000 1.026991 5.938215 5.300743 -8.450786 6.043876 1.973089 14.911368 4.725763 0.132881 -5.051909 0.694194 -6.144787 0.000000 0.000000 0.000000 1.026991 5.938215 5.300743 -14.026049 -9.405334 -14.166714 31.931640 -1.107299 -2.170161 -17.960869 -9.271342 9.033735 0.000000 0.000000 0.000000 1.026991 5.938215 5.300743 0.000000 0.000000 0.000000 8.079501 -1.707449 6.977528 1.960708 -0.619253 1.297406 0.000000 0.000000 0.000000 1.952975 -0.608263 1.307200 0.638812 0.296849 1.361749 0.000000 0.000000 0.000000 1.952975 -0.608263 1.307200 0.638614 -5.466734 -12.525825 6.178446 -5.316454 -42.390965 0.000024 -65.547167 0.000023 0.000000 0.000000 0.000000 1.952975 -0.608263 1.307200 1.973435 20.822762 11.448877 -7.453077 26.678272 58.483003 -179.994978 79.886193 179.995005 0.000000 0.000000 0.000000 
-1.132764 93.554611 2.248158 0.000000 0.000000 0.000000 0.944604 5.855246 5.287854 -8.295724 6.080728 1.958860 14.949993 4.771556 0.118263 -5.196120 0.697126 -6.090384 0.000000 0.000000 0.000000 0.944604 5.855246 5.287854 -13.822565 -9.106421 -14.086869 31.863444 -1.335664 -2.166276 -17.921738 -9.300514 9.138992 0.000000 0.000000 0.000000 0.944604 5.855246 5.287854 0.000000 0.000000 0.000000 8.057590 -1.934666 6.953508 1.956566 -0.681585 1.278526 0.000000 0.000000 0.000000 1.948482 -0.669982 1.289512 0.647227 0.311688 1.331566 0.000000 0.000000 0.000000 1.948482 -0.669982 1.289512 0.642403 -5.522237 -12.356910 6.344979 -5.446055 -42.394076 0.000016 -65.552249 0.000002 0.000000 0.000000 0.000000 1.948482 -0.669982 1.289512 2.052486 21.276529 11.328174 -5.200943 29.230799 57.085543 -179.998147 79.389966 179.998161 0.000000 0.000000 0.000000 
-1.089460 93.558350 2.287539 0.000000 0.000000 0.000000 0.877245 5.786770 5.253271 -8.185808 6.114040 1.987826 15.021428 4.796013 0.105881 -5.325934 0.702163 -6.089353 0.000000 0.000000 0.000000 0.877245 5.786770 5.253271 -13.601628 -8.816583 -13.976418 31.752033 -1.583619 -2.162074 -17.868197 -9.327640 9.243321 0.000000 0.000000 0.000000 0.877245 5.786770 5.253271 0.000000 0.000000 0.000000 8.033038 -2.145124 6.912071 1.949550 -0.739108 1.258280 0.000000 0.000000 0.000000 1.941189 -0.727064 1.270344 0.658652 0.324182 1.301666 0.000000 0.000000 0.000000 1.941189 -0.727064 1.270344 0.646574 -5.587139 -12.181946 6.521553 -5.578312 -42.384964 -0.000011 -65.581646 -0.000021 0.000000 0.000000 0.000000 1.941189 -0.727064 1.270344 2.127742 21.749853 11.226048 -2.955941 31.958223 55.283958 -179.995251 79.163457 179.995319 0.000000 0.000000 0.000000 
-1.035944 93.567314 2.323509 0.000000 0.000000 0.000000 0.810038 5.614474 5.214112 -8.014454 6.159856 1.978983 15.067519 4.899465 0.095444 -5.513435 0.706036 -6.020407 0.000000 0.000000 0.000000 0.810038 5.614474 5.214112 -13.419917 -8.511775 -13.883125 31.624903 -1.732416 -2.160429 -17.771751 -9.346670 9.331347 0.000000 0.000000 0.000000 0.810038 5.614474 5.214112 0.000000 0.000000 -0.000001 8.007128 -2.313114 6.848082 1.939366 -0.784636 1.237833 0.000000 0.000000 0.000000 1.930843 -0.772449 1.250737 0.671865 0.333274 1.272705 0.000000 0.000000 0.000000 1.930843 -0.772449 1.250737 0.650620 -5.663806 -12.020155 6.690381 -5.717662 -42.349082 0.000003 -65.646430 0.000017 0.000000 0.000000 0.000000 1.930843 -0.772449 1.250737 2.199100 22.248663 11.134866 -0.675744 34.789719 53.073220 -179.994705 79.171161 179.994773 0.000000 0.000000 0.000000 
-0.984448 93.577194 2.355473 0.000000 0.000000 0.000000 0.716721 5.420326 5.170585 -7.817000 6.209666 1.994000 15.122560 5.030562 0.084432 -5.691673 0.712518 -5.999330 0.000000 0.000000 0.000000 0.716721 5.420326 5.170585 -13.222866 -8.209598 -13.785050 31.499361 -1.859793 -2.159270 -17.670691 -9.363138 9.411654 0.000000 0.000000 0.000000 0.716721 5.420326 5.170585 0.000000 0.000000 0.000000 7.985283 -2.425469 6.757043 1.926870 -0.814442 1.216386 0.000000 0.000000 0.000000 1.918327 -0.802435 1.229825 0.684246 0.338661 1.245384 0.000000 0.000000 0.000000 1.918327 -0.802435 1.229825 0.654071 -5.745021 -11.870240 6.829695 -5.875780 -42.297183 -0.000029 -65.743118 -0.000035 0.000000 0.000000 0.000000 1.918327 -0.802435 1.229825 2.264668 22.787451 11.057736 1.670489 37.648327 50.461130 -179.994377 79.409555 179.994432 0.000000 0.000000 0.000000 
-0.932199 93.588837 2.385351 0.000000 0.000000 0.000000 0.614805 5.171961 5.115709 -7.593595 6.267227 2.014149 15.189359 5.210435 0.071762 -5.901321 0.720561 -5.971764 0.000000 0.000000 0.000000 0.614805 5.171961 5.115709 -13.034472 -7.906593 -13.682366 31.361316 -1.934113 -2.159384 -17.547729 -9.374145 9.477722 0.000000 0.000000 0.000000 0.614805 5.171961 5.115709 0.000000 0.000000 0.000000 7.969677 -2.484039 6.638523 1.913152 -0.829057 1.192538 0.000000 0.000000 0.000000 1.904708 -0.817494 1.206200 0.693804 0.340930 1.219825 0.000000 0.000000 0.000000 1.904708 -0.817494 1.206200 0.657164 -5.821997 -11.717780 6.920506 -6.063880 -42.259118 -0.000020 -65.853405 -0.000040 0.000000 0.000000 0.000000 1.904708 -0.817494 1.206200 2.322802 23.374813 10.999081 4.103768 40.476415 47.464122 179.997601 79.872259 -179.997614 0.000000 0.000000 0.000000 
-0.877250 93.602608 2.414175 0.000000 0.000000 0.000000 0.510531 4.873439 5.049039 -7.347072 6.331821 2.028713 15.262920 5.429685 0.058036 -6.153270 0.726807 -5.909689 0.000000 0.000000 0.000000 0.510531 4.873439 5.049039 -12.856619 -7.603093 -13.576750 31.204986 -1.958568 -2.160740 -17.401200 -9.380022 9.531733 0.000000 0.000000 0.000000 0.510531 4.873439 5.049039 0.000000 0.000000 0.000000 7.955092 -2.499203 6.495427 1.898656 -0.831236 1.165685 0.000000 0.000000 0.000000 1.890431 -0.820288 1.179327 0.700522 0.341026 1.195656 0.000000 0.000000 0.000000 1.890431 -0.820288 1.179327 0.660613 -5.893532 -11.550302 6.955301 -6.285246 -42.258780 -0.000020 -65.958099 -0.000030 0.000000 0.000000 0.000000 1.890431 -0.820288 1.179327 2.374778 24.004275 10.953895 6.640393 43.240859 44.109164 179.999759 80.543995 -179.999773 0.000000 0.000000 0.000000 
